<svg xmlns="http://www.w3.org/2000/svg" width="219.22" height="101.86" fill="none" overflow="visible"><g><path d="M 71.57 74.93 C 70.98 61.17 64.11 50.05 42.44 50.05 L 41.42 50.05 L 41.42 87.96 C 41.42 96.01 45.66 99.67 54.01 99.67 C 66.45 99.67 72.16 89.72 71.57 74.94 Z M 42.59 47.71 C 62.06 47.71 66.01 38.2 66.01 25.17 C 66.01 10.09 58.11 2.19 41.86 2.19 C 41.57 5.56 41.42 13.17 41.42 18.44 L 41.42 47.71 Z M 0 100.4 C 16.1 99.96 17.27 92.64 17.27 78.59 L 17.27 22.97 C 17.27 7.02 15.37 2.19 0 1.46 L 0 0 L 48.01 0 C 74.5 0 91.92 6.15 91.92 24.44 C 91.92 37.91 80.94 45.81 64.11 47.42 L 64.11 48.15 C 85.19 49.91 98.65 57.96 98.65 74.35 C 98.65 90.74 85.62 97.62 74.35 99.96 C 67.33 101.42 58.25 101.86 49.91 101.86 L 0 101.86 Z" fill="rgb(255, 255, 255)"></path><path d="M 93.5 100.39 C 108.28 99.95 110.77 93.66 110.77 78.73 L 110.77 22.97 C 110.77 7.89 108.72 2.04 93.5 1.46 L 93.5 0 C 102.57 0.29 114.43 0.44 123.21 0.44 C 132.43 0.44 142.24 0.29 150.58 0 L 150.58 1.46 C 137.11 2.19 134.92 7.9 134.92 22.97 L 134.92 48 L 177.8 48 L 177.8 21.95 C 177.8 7.9 175.75 1.75 162.14 1.46 L 162.14 0 C 171.51 0.29 180.43 0.44 189.36 0.44 C 198.29 0.44 208.68 0.29 219.22 0 L 219.22 1.46 C 204.88 1.75 201.95 7.75 201.95 21.95 L 201.95 78.74 C 201.95 93.67 204.88 99.96 219.22 100.4 L 219.22 101.86 C 208.68 101.57 199.02 101.42 190.09 101.42 C 180.58 101.42 172.38 101.57 162.14 101.86 L 162.14 100.4 C 176.04 99.96 177.8 93.67 177.8 78.74 L 177.8 50.35 L 134.92 50.35 L 134.92 78.89 C 134.92 93.67 137.26 99.97 150.58 100.4 L 150.58 101.86 C 140.77 101.57 131.85 101.42 122.48 101.42 C 113.7 101.42 104.04 101.42 93.5 101.86 L 93.5 100.4 Z" fill="rgb(255, 255, 255)"></path></g></svg>